<?xml version="1.0" encoding="UTF-8"?>
<svg version="1.1" xmlns="http://www.w3.org/2000/svg" width="900" height="900">
<path d="M0 0 C3.01580144 1.58726391 3.6793979 3.29968883 4.6875 6.484375 C7.11730609 16.25882221 8.83932815 26.18586224 9.375 36.25 C9.45427734 37.29414063 9.45427734 37.29414063 9.53515625 38.359375 C10.1771527 53.20903191 5.48553626 69.00896819 -4.171875 80.41796875 C-9.43287082 85.92985021 -15.17800347 90.2220235 -21.58984375 94.30078125 C-48.022926 111.27646727 -71.25256669 136.9939546 -78.625 168.25 C-79.285 168.25 -79.945 168.25 -80.625 168.25 C-87.62602135 148.0395044 -87.62602135 148.0395044 -88.625 140.25 C-88.75777344 139.2496875 -88.89054687 138.249375 -89.02734375 137.21875 C-90.47853786 123.52208652 -88.16188247 111.85820777 -80.625 100.25 C-75.03169085 93.57511173 -67.67895349 89.1527835 -60.24633789 84.78613281 C-54.01240268 81.08979037 -49.11670481 76.71612002 -45.625 70.25 C-45.28975124 66.49870163 -45.28975124 66.49870163 -45.625 63.25 C-46.32625 63.9925 -47.0275 64.735 -47.75 65.5 C-54.46776732 71.92569048 -61.71701243 74.24032672 -70.39453125 77.16210938 C-81.17583108 80.9111622 -88.5963376 85.26990196 -93.84765625 95.671875 C-98.99285478 107.54824723 -98.12784169 120.22593708 -96.375 132.79296875 C-96.24150146 133.78153366 -96.10800293 134.77009857 -95.97045898 135.78862 C-94.52381419 146.3173293 -92.84323683 156.80889438 -91.15045166 167.30029297 C-88.47183241 183.93019677 -85.87494453 200.51734909 -84.1953125 217.28125 C-83.63896802 222.65996269 -82.66123302 227.9455041 -81.625 233.25 C-80.09226011 231.21256771 -78.56934598 229.17250707 -77.08203125 227.1015625 C-65.01476517 210.76345878 -46.88711376 206.33306897 -27.8125 202.8125 C-3.67234193 198.67131942 -3.67234193 198.67131942 16.125 185.3125 C17.73828125 183.53125 17.73828125 183.53125 19.375 182.25 C23.3125 182.3125 23.3125 182.3125 26.375 183.25 C33.1866244 201.18818217 26.17262864 227.46117996 18.5546875 244.4453125 C6.85972195 269.20305877 -12.85457677 291.08084564 -38.375 302.09765625 C-44.93788591 304.42464104 -51.7127705 306.01630099 -58.46386719 307.69775391 C-62.56060234 308.74461506 -66.58890902 309.99285691 -70.625 311.25 C-74.01395169 304.47209663 -70.78281185 295.00007809 -68.625 288.25 C-67.5025022 285.42936451 -66.18998874 282.84889827 -64.625 280.25 C-64.27824219 279.65703125 -63.93148438 279.0640625 -63.57421875 278.453125 C-58.25922745 270.19753714 -50.04778319 265.84989325 -41.625 261.3125 C-32.331001 256.28651177 -24.11010024 251.19522227 -19.625 241.25 C-19.625 240.26 -19.625 239.27 -19.625 238.25 C-20.11484375 238.65089844 -20.6046875 239.05179688 -21.109375 239.46484375 C-29.13400721 245.56633134 -38.09323735 249.20993628 -47.28125 253.21728516 C-63.01280859 260.14900316 -71.83556604 267.79006311 -78.58203125 284 C-81.36921665 292.68516199 -81.90330842 300.95704216 -81.8203125 310.0390625 C-81.8174826 311.22349945 -81.81465271 312.4079364 -81.81173706 313.62826538 C-81.80062395 317.37728369 -81.7755358 321.12605501 -81.75 324.875 C-81.73995874 327.43098611 -81.7308349 329.986976 -81.72265625 332.54296875 C-81.70071371 338.7787288 -81.66732539 345.01434675 -81.625 351.25 C-81.07067291 351.22036163 -80.51634583 351.19072327 -79.94522095 351.16018677 C-68.28818746 350.54623112 -56.67545432 350.08753865 -45 350.125 C-43.75605469 350.12113281 -42.51210938 350.11726563 -41.23046875 350.11328125 C-21.67877504 350.13388367 -21.67877504 350.13388367 -16.97265625 352.69140625 C-14.83081789 356.75779503 -15.00726478 360.66146073 -15.0625 365.1875 C-15.03865234 366.08146484 -15.01480469 366.97542969 -14.99023438 367.89648438 C-14.99216797 368.76466797 -14.99410156 369.63285156 -14.99609375 370.52734375 C-14.9950061 371.70671509 -14.9950061 371.70671509 -14.99389648 372.90991211 C-15.95789897 376.48436621 -17.74353824 377.99515582 -20.625 380.25 C-23.76293945 380.90942383 -23.76293945 380.90942383 -27.23828125 380.95703125 C-28.48544922 380.98603516 -29.73261719 381.01503906 -31.01757812 381.04492188 C-32.31115234 381.05072266 -33.60472656 381.05652344 -34.9375 381.0625 C-36.90686523 381.10020508 -36.90686523 381.10020508 -38.91601562 381.13867188 C-42.15264489 381.19751968 -45.38792218 381.23381937 -48.625 381.25 C-47.55121094 381.91386719 -46.47742188 382.57773437 -45.37109375 383.26171875 C-43.93481955 384.15352299 -42.49862593 385.04545702 -41.0625 385.9375 C-40.35802734 386.37255859 -39.65355469 386.80761719 -38.92773438 387.25585938 C-34.36429135 390.09486771 -29.9675479 393.08296441 -25.625 396.25 C-26.21802917 403.30677426 -27.66053512 409.81593204 -29.53125 416.63671875 C-29.81601196 417.69736038 -30.10077393 418.75800201 -30.39416504 419.8507843 C-31.29824847 423.21472962 -32.21107071 426.57621759 -33.125 429.9375 C-34.03761151 433.30982828 -34.94830313 436.68265181 -35.85583496 440.05635071 C-36.4190686 442.14852785 -36.98541551 444.23987006 -37.55529785 446.33024597 C-38.80382591 450.95338643 -39.97078985 455.49644081 -40.625 460.25 C-39.635 460.21519531 -38.645 460.18039062 -37.625 460.14453125 C-29.3404945 459.94216325 -23.1435195 460.49074025 -15.625 464.25 C-15.7959754 472.28584401 -20.3108563 476.9476504 -25.8203125 482.4375 C-31.69113217 487.86267989 -37.96828741 492.78569055 -44.296875 497.66015625 C-46.31040446 499.21239408 -48.26130392 500.78893014 -50.203125 502.43359375 C-51.30914063 503.36365234 -51.30914063 503.36365234 -52.4375 504.3125 C-53.04207031 504.83972656 -53.64664062 505.36695313 -54.26953125 505.91015625 C-61.45120287 509.99525304 -69.98175913 509.56400843 -78 509.5 C-79.13961182 509.4990332 -80.27922363 509.49806641 -81.45336914 509.49707031 C-89.12806806 509.43461748 -96.66084311 508.97456979 -104.22216797 507.61035156 C-110.7542737 506.62893058 -115.66012753 508.68544267 -121.625 511.25 C-122.66906006 511.6939209 -123.71312012 512.1378418 -124.78881836 512.59521484 C-128.16385954 514.05665552 -131.52087351 515.55371351 -134.875 517.0625 C-136.06867188 517.59584961 -137.26234375 518.12919922 -138.4921875 518.67871094 C-144.56300843 521.39834613 -150.61099729 524.15713628 -156.625 527 C-203.54475892 549.01701671 -203.54475892 549.01701671 -218.625 546.25 C-221.81331671 544.37586401 -224.13970744 541.96550913 -226.625 539.25 C-227.18574219 538.69441406 -227.74648438 538.13882813 -228.32421875 537.56640625 C-252.5495347 512.21170495 -261.94788785 472.75457653 -271.625 440.25 C-272.623958 436.91635382 -273.62432389 433.58313081 -274.625 430.25 C-274.68319916 431.3248616 -274.74139832 432.39972321 -274.80136108 433.50715637 C-275.35940975 443.81230212 -275.91802014 454.1174173 -276.4771328 464.42250538 C-276.76431875 469.71598202 -277.05133012 475.00946798 -277.33789062 480.30297852 C-278.72665137 505.95436 -280.13814686 531.60410104 -281.625 557.25 C-280.96466766 557.38064346 -280.30433533 557.51128693 -279.62399292 557.64588928 C-275.17817761 558.52946246 -270.73858721 559.4196156 -266.3203125 560.43359375 C-256.87701755 562.56616803 -247.45335997 564.57126021 -237.875 566 C-237.1030127 566.11529053 -236.33102539 566.23058105 -235.53564453 566.34936523 C-223.92392278 567.99908393 -212.40223151 568.49092048 -200.6875 568.5 C-199.89976196 568.50067474 -199.11202393 568.50134949 -198.30041504 568.50204468 C-137.62748713 568.42019482 -75.93516337 548.99371404 -28.625 510.25 C-27.67496094 509.49074219 -26.72492188 508.73148438 -25.74609375 507.94921875 C-9.39001105 494.77790876 6.7518853 480.10472701 19.375 463.25 C19.79265625 462.69812012 20.2103125 462.14624023 20.640625 461.57763672 C48.78960405 424.29843925 67.49909702 383.20583648 76.375 337.25 C76.62491699 335.97068604 76.62491699 335.97068604 76.87988281 334.66552734 C82.25426147 305.49589244 81.64945919 272.38045214 76.375 243.25 C76.11759033 241.77926025 76.11759033 241.77926025 75.85498047 240.27880859 C72.74541041 222.93024212 68.54413812 205.40471555 61.375 189.25 C60.08091428 185.9207053 58.81923563 182.58035677 57.55859375 179.23828125 C56.470129 176.33906071 56.470129 176.33906071 55.22265625 174.04296875 C54.375 172.25 54.375 172.25 54.375 169.25 C53.715 168.92 53.055 168.59 52.375 168.25 C51.5061051 166.67566567 50.70236296 165.06491869 49.9375 163.4375 C48.34374172 160.05513525 46.62492244 157.22530727 44.375 154.25 C43.900625 153.115625 43.42625 151.98125 42.9375 150.8125 C41.44034583 147.39898848 39.6901997 145.124041 37.375 142.25 C37.375 141.26 37.375 140.27 37.375 139.25 C36.715 139.25 36.055 139.25 35.375 139.25 C34.715 137.27 34.055 135.29 33.375 133.25 C32.715 133.25 32.055 133.25 31.375 133.25 C27.08928571 125.82142857 27.08928571 125.82142857 25.375 122.25 C24.715 122.25 24.055 122.25 23.375 122.25 C23.106875 121.280625 22.83875 120.31125 22.5625 119.3125 C21.9746875 117.7965625 21.9746875 117.7965625 21.375 116.25 C20.385 115.92 19.395 115.59 18.375 115.25 C14.36069764 109.29775857 13.26782251 102.30227908 13.375 95.25 C14.50324145 89.60879274 16.8061086 84.38778279 19.375 79.25 C20.035 79.25 20.695 79.25 21.375 79.25 C21.705 78.26 22.035 77.27 22.375 76.25 C28.24306897 78.64069476 31.63848166 83.49107327 35.10546875 88.54296875 C36.51989007 90.5312206 36.51989007 90.5312206 39.1875 93.0625 C41.375 95.25 41.375 95.25 41.375 97.25 C42.365 97.58 43.355 97.91 44.375 98.25 C45.0625 100.3125 45.0625 100.3125 45.375 102.25 C46.035 102.25 46.695 102.25 47.375 102.25 C47.705 103.57 48.035 104.89 48.375 106.25 C49.035 106.25 49.695 106.25 50.375 106.25 C50.705 107.57 51.035 108.89 51.375 110.25 C52.035 110.25 52.695 110.25 53.375 110.25 C53.375 111.24 53.375 112.23 53.375 113.25 C54.035 113.25 54.695 113.25 55.375 113.25 C58.375 117.63461538 58.375 117.63461538 58.375 120.25 C59.035 120.25 59.695 120.25 60.375 120.25 C60.705 121.9 61.035 123.55 61.375 125.25 C62.035 125.25 62.695 125.25 63.375 125.25 C63.66632812 125.78367187 63.95765625 126.31734375 64.2578125 126.8671875 C66.56215184 131.05557787 68.93012814 135.17950828 71.4375 139.25 C73.78696735 143.12963327 75.73298751 147.03554784 77.49609375 151.2109375 C78.29020302 153.05327101 79.20151585 154.84399485 80.125 156.625 C81.375 159.25 81.375 159.25 81.375 162.25 C82.035 162.25 82.695 162.25 83.375 162.25 C84.035 165.22 84.695 168.19 85.375 171.25 C86.035 171.25 86.695 171.25 87.375 171.25 C88.69126692 174.86973402 89.375 177.34567131 89.375 181.25 C90.035 181.58 90.695 181.91 91.375 182.25 C92.24121094 184.33764648 92.24121094 184.33764648 93.109375 187.12109375 C93.43333252 188.15733887 93.75729004 189.19358398 94.09106445 190.26123047 C94.43226318 191.39189941 94.77346191 192.52256836 95.125 193.6875 C95.65516724 195.43377686 95.65516724 195.43377686 96.19604492 197.21533203 C120.71968889 279.59572827 112.14904753 364.37902442 71.8125 440.18652344 C66.27457119 450.29397995 60.19248196 459.95514915 53.375 469.25 C52.9094873 469.89066406 52.44397461 470.53132813 51.96435547 471.19140625 C46.49230194 478.70367512 40.96056474 486.04468523 34.60546875 492.84375 C32.72278363 494.87480785 30.90722994 496.93963216 29.09765625 499.03515625 C19.77728345 509.71793838 9.55673776 519.54278236 -1.625 528.25 C-2.78742577 529.19904991 -3.94743091 530.15106959 -5.10546875 531.10546875 C-24.04825611 546.65317933 -45.32960515 560.05424078 -67.625 570.25 C-68.25180664 570.54116699 -68.87861328 570.83233398 -69.52441406 571.13232422 C-107.56441171 588.62187234 -148.81892909 597.91886142 -190.625 599.25 C-192.52185547 599.311875 -192.52185547 599.311875 -194.45703125 599.375 C-260.52685525 600.41240646 -325.27580248 579.84404488 -378.93212891 541.45947266 C-380.51302573 540.33000008 -382.10571035 539.21707753 -383.69921875 538.10546875 C-389.22751382 534.1963396 -394.30930546 529.99692434 -399.28515625 525.40625 C-401.4045634 523.45314024 -403.56261894 521.56361631 -405.75 519.6875 C-409.90697997 516.06798815 -413.76698003 512.18317621 -417.625 508.25 C-418.470625 507.404375 -419.31625 506.55875 -420.1875 505.6875 C-421.3940625 504.4809375 -421.3940625 504.4809375 -422.625 503.25 C-423.13417969 502.76402344 -423.64335937 502.27804687 -424.16796875 501.77734375 C-429.4661426 496.64890544 -434.02349654 491.00187932 -438.625 485.25 C-439.285 484.445625 -439.945 483.64125 -440.625 482.8125 C-461.92742987 456.69984403 -478.27675826 426.93942975 -489.625 395.25 C-489.90923828 394.47140625 -490.19347656 393.6928125 -490.48632812 392.890625 C-502.81119217 358.91557808 -508.51895484 322.35584259 -507.625 286.25 C-506.6505896 286.22812622 -506.6505896 286.22812622 -505.65649414 286.20581055 C-502.6662806 286.13058338 -499.67709403 286.03417388 -496.6875 285.9375 C-495.66591797 285.91494141 -494.64433594 285.89238281 -493.59179688 285.86914062 C-487.78476176 285.66505952 -482.94333135 285.03112562 -477.56030273 282.78442383 C-475.11135618 282.10815992 -473.9558557 282.2380718 -471.625 283.25 C-458.68444119 297.49866545 -454.87035124 317.2014081 -451.37817383 335.40820312 C-451.21103882 336.27798294 -451.04390381 337.14776276 -450.8717041 338.04389954 C-450.56319367 339.67984732 -450.26509946 341.31780895 -449.97961426 342.95793152 C-449.00910566 348.26918354 -447.99136375 353.20100183 -443.730896 356.89007568 C-438.96830417 358.97538841 -434.37337389 358.67539106 -429.22875977 358.65405273 C-428.07699249 358.66091599 -426.92522522 358.66777924 -425.73855591 358.67485046 C-421.93104731 358.69315267 -418.1239494 358.6892759 -414.31640625 358.68359375 C-411.66991542 358.68815386 -409.02342578 358.69345892 -406.37693787 358.69947815 C-400.82962109 358.70950375 -395.28242093 358.70621208 -389.73510742 358.69604492 C-383.33034469 358.68456534 -376.92600077 358.69863816 -370.52129322 358.7254414 C-364.35055559 358.75029492 -358.18001077 358.7527722 -352.00922966 358.74632454 C-349.38776897 358.74617109 -346.7663003 358.75223443 -344.14486885 358.76461601 C-340.47980693 358.77948751 -336.81566774 358.76887568 -333.15063477 358.75170898 C-332.06732376 358.76137695 -330.98401276 358.77104492 -329.86787415 358.78100586 C-323.83124197 358.7217774 -320.16745728 358.3776104 -315.625 354.25 C-313.00270588 349.40704411 -311.80944436 344.40177107 -310.6796875 339.0625 C-310.3268261 337.47006072 -309.97286141 335.87786561 -309.61791992 334.28588867 C-309.34484512 333.05060928 -309.34484512 333.05060928 -309.06625366 331.79037476 C-306.31057669 319.4276252 -303.42687921 307.25930309 -298.8125 295.4375 C-298.4520459 294.49712891 -298.0915918 293.55675781 -297.72021484 292.58789062 C-295.2065647 286.5084732 -295.2065647 286.5084732 -292.75292969 285.41796875 C-290.1906499 285.21571445 -288.86337842 285.69794755 -286.53515625 286.76953125 C-285.7570459 287.12724609 -284.97893555 287.48496094 -284.17724609 287.85351562 C-283.35562988 288.25248047 -282.53401367 288.65144531 -281.6875 289.0625 C-280.84010254 289.47048828 -279.99270508 289.87847656 -279.11962891 290.29882812 C-271.48545724 294.10072374 -265.00895011 298.62710986 -258.625 304.25 C-257.81933594 304.95640625 -257.01367188 305.6628125 -256.18359375 306.390625 C-239.64843632 321.91929459 -233.03840931 342.55819226 -224.9375 363.125 C-224.10356418 365.23779501 -223.26941275 367.35050493 -222.43505859 369.46313477 C-220.70117708 373.85384806 -218.96822064 378.24492485 -217.23583984 382.63623047 C-213.88548463 391.12636528 -210.52373431 399.61197905 -207.16210938 408.09765625 C-204.41079875 415.0427876 -201.6632726 421.98941454 -198.915802 428.93606567 C-196.78907694 434.31196855 -194.65838323 439.68627084 -192.5234375 445.05891418 C-191.27922091 448.19135571 -190.03758647 451.32481615 -188.79656982 454.45852661 C-188.22963435 455.88827141 -187.66150313 457.31754272 -187.09210205 458.74630737 C-186.32524964 460.67081365 -185.56250093 462.59689517 -184.80078125 464.5234375 C-184.16523315 466.12324463 -184.16523315 466.12324463 -183.5168457 467.75537109 C-182.625 470.25 -182.625 470.25 -182.625 472.25 C-181.82964844 472.04246094 -181.03429687 471.83492187 -180.21484375 471.62109375 C-168.86767521 468.72058757 -157.449447 466.15607552 -146.01538086 463.62475586 C-144.68993743 463.32928215 -143.36449782 463.03379134 -142.0390625 462.73828125 C-140.8526416 462.47571533 -139.6662207 462.21314941 -138.44384766 461.94262695 C-135.69579522 461.37742743 -135.69579522 461.37742743 -133.625 460.25 C-133.93137637 451.84399448 -135.13170463 443.68216781 -136.54296875 435.40234375 C-136.72417267 434.33625885 -136.90537659 433.27017395 -137.09207153 432.17178345 C-137.85630095 427.70376054 -138.6279652 423.23714957 -139.4128418 418.77270508 C-139.98841537 415.48442409 -140.54800779 412.19373643 -141.10546875 408.90234375 C-141.2876445 407.89195541 -141.46982025 406.88156708 -141.65751648 405.84056091 C-141.81460587 404.90180618 -141.97169525 403.96305145 -142.13354492 402.99584961 C-142.27708908 402.17346298 -142.42063324 401.35107635 -142.56852722 400.50376892 C-142.63607038 397.80819264 -142.1001323 396.48860822 -140.625 394.25 C-138.01123047 392.51074219 -138.01123047 392.51074219 -134.7421875 390.796875 C-133.88078659 390.33924774 -133.88078659 390.33924774 -133.00198364 389.87237549 C-131.17345771 388.90409644 -129.33707087 387.95194984 -127.5 387 C-126.25595789 386.34479802 -125.01246122 385.68855929 -123.76953125 385.03125 C-120.72657143 383.42720916 -117.67842296 381.83400669 -114.625 380.25 C-115.6037207 380.23541748 -116.58244141 380.22083496 -117.59082031 380.20581055 C-121.22904626 380.14774894 -124.86665836 380.0705174 -128.50439453 379.98754883 C-130.07753522 379.95433628 -131.65079401 379.92629283 -133.22412109 379.90356445 C-135.48846672 379.86994972 -137.75173365 379.81763376 -140.015625 379.76171875 C-140.71681458 379.75532883 -141.41800415 379.7489389 -142.14044189 379.74235535 C-146.2091272 379.62040151 -148.7570355 379.24194881 -151.625 376.25 C-152.89123134 372.45130598 -152.92639516 368.83627888 -153 364.875 C-153.03738281 364.11960937 -153.07476562 363.36421875 -153.11328125 362.5859375 C-153.17398616 358.72780348 -152.86228287 356.65555729 -150.87890625 353.265625 C-145.8466939 350.14843223 -141.00207606 350.42311449 -135.1875 350.375 C-133.99858154 350.34801025 -132.80966309 350.32102051 -131.5847168 350.29321289 C-120.57461342 350.10461084 -109.60932463 350.52807775 -98.625 351.25 C-98.75820935 346.8715836 -98.96607747 342.49977247 -99.1875 338.125 C-99.24260742 336.26875 -99.24260742 336.26875 -99.29882812 334.375 C-99.56016639 326.77087334 -99.56016639 326.77087334 -103.52734375 320.6328125 C-111.94709798 315.00206149 -121.72164132 313.48067118 -131.5625 312.1875 C-159.64271899 308.38479737 -182.00689233 297.9680862 -199.625 275.25 C-216.10585728 252.13660259 -225.6634782 223.55195746 -227.625 195.25 C-226.1875 192.6875 -226.1875 192.6875 -224.625 191.25 C-219.57364109 191.36225242 -216.75805476 192.64491778 -212.5859375 195.50390625 C-206.97044151 199.1604758 -201.30370362 201.73007273 -195.0625 204.125 C-193.99112793 204.54644287 -192.91975586 204.96788574 -191.81591797 205.40209961 C-184.03212672 208.42611213 -176.16235901 211.14736437 -168.25 213.8125 C-131.03841623 226.42147539 -131.03841623 226.42147539 -121.09375 243.23828125 C-116.82512433 251.99123443 -114.46436599 261.3472334 -114.5625 271.0625 C-114.57152344 272.22394531 -114.58054687 273.38539063 -114.58984375 274.58203125 C-114.60724609 275.90267578 -114.60724609 275.90267578 -114.625 277.25 C-115.615 277.58 -116.605 277.91 -117.625 278.25 C-118.32625 277.26 -119.0275 276.27 -119.75 275.25 C-128.03263528 265.77056191 -141.45256885 261.44154291 -152.83349609 256.92651367 C-163.02676912 252.8473545 -172.32904485 248.66649433 -179.625 240.25 C-178.22657424 249.26671537 -174.85056819 256.24368645 -167.62109375 262.01171875 C-163.90212006 264.31879245 -159.83556598 265.19735851 -155.625 266.25 C-136.40347147 271.53833511 -121.25182451 280.76427182 -108.625 296.25 C-108.295 296.91 -107.965 297.57 -107.625 298.25 C-102.3141682 287.86973784 -102.26000245 275.93597436 -102.3125 264.5 C-102.31668945 263.22084717 -102.32087891 261.94169434 -102.32519531 260.6237793 C-102.65118056 223.70046082 -110.48871942 191.50508978 -123.4375 157.0625 C-125.70348165 151.0251276 -127.69833555 144.9605569 -129.4375 138.75 C-129.63255127 138.05624268 -129.82760254 137.36248535 -130.02856445 136.64770508 C-132.66151324 126.87664283 -133.99271101 117.43965992 -133.9375 107.3125 C-133.93331055 106.25925537 -133.92912109 105.20601074 -133.92480469 104.12084961 C-133.81842428 96.81511869 -133.24535369 90.13264573 -130.625 83.25 C-130.18994141 82.06664062 -130.18994141 82.06664062 -129.74609375 80.859375 C-121.48904312 60.54495755 -103.85768609 48.54040512 -84.29125977 40.26269531 C-81.9327328 39.33529502 -79.56405557 38.44264474 -77.1875 37.5625 C-76.300625 37.22710205 -75.41375 36.8917041 -74.5 36.54614258 C-69.35136656 34.60699513 -64.18305665 32.73249342 -58.99609375 30.8984375 C-40.69178768 24.37761012 -22.22871206 17.46989257 -7.625 4.25 C-2.97762309 0.28358315 -2.97762309 0.28358315 0 0 Z M-418.625 384.25 C-421.07801073 387.34292657 -421.01753785 390.40312909 -420.625 394.25 C-419.26176551 397.40696409 -418.27442415 398.86385591 -415.3125 400.625 C-411.93171597 401.41122884 -409.94701297 401.28812905 -406.625 400.25 C-403.625 398.25 -403.625 398.25 -401.625 395.25 C-401.07921525 391.42950672 -401.32764948 389.03710432 -402.6875 385.4375 C-407.50339891 380.00019478 -412.80710538 380.82770905 -418.625 384.25 Z M-352.625 384.25 C-355.07801073 387.34292657 -355.01753785 390.40312909 -354.625 394.25 C-353.26176551 397.40696409 -352.27442415 398.86385591 -349.3125 400.625 C-345.93171597 401.41122884 -343.94701297 401.28812905 -340.625 400.25 C-337.625 398.25 -337.625 398.25 -335.625 395.25 C-335.07921525 391.42950672 -335.32764948 389.03710432 -336.6875 385.4375 C-341.50339891 380.00019478 -346.80710538 380.82770905 -352.625 384.25 Z M-416.53286743 429.55743408 C-418.43625719 432.50727069 -418.10024474 434.86388122 -417.625 438.25 C-414.95108864 441.03246196 -413.27270093 442.14677569 -409.43786621 442.75793457 C-407.63847595 442.76270813 -407.63847595 442.76270813 -405.80273438 442.76757812 C-405.13703934 442.7745874 -404.4713443 442.78159668 -403.78547668 442.78881836 C-401.59613703 442.80635061 -399.40810162 442.79479428 -397.21875 442.78125 C-395.69087477 442.78394633 -394.16300121 442.78782992 -392.63513184 442.79284668 C-389.43741472 442.7987352 -386.24014541 442.79020018 -383.04248047 442.77148438 C-378.94997259 442.74869452 -374.85851403 442.76182117 -370.76604462 442.78577423 C-367.61236713 442.80025009 -364.45893715 442.79561818 -361.30525208 442.78526306 C-359.79661433 442.78260068 -358.28795388 442.78584835 -356.77934265 442.79518127 C-354.66804762 442.80537722 -352.55843573 442.78980719 -350.44726562 442.76757812 C-349.24767212 442.76439575 -348.04807861 442.76121338 -346.81213379 442.75793457 C-343.00755976 442.15159834 -341.35236745 440.91689436 -338.625 438.25 C-337.4673415 436.37042756 -337.4673415 436.37042756 -337.625 434.25 C-338.77286941 432.00643706 -339.8345767 430.0404233 -341.625 428.25 C-343.87864202 428.13977415 -346.13578568 428.10085104 -348.39208984 428.08886719 C-349.45309654 428.08141983 -349.45309654 428.08141983 -350.53553772 428.07382202 C-352.88568072 428.05916512 -355.23575622 428.0523924 -357.5859375 428.046875 C-359.21399946 428.04112621 -360.84206139 428.03536845 -362.47012329 428.02960205 C-365.88828854 428.01908185 -369.3064302 428.01324595 -372.72460938 428.00976562 C-377.10866348 428.00428035 -381.49240707 427.98025612 -385.87636375 427.95179367 C-389.24092524 427.93318637 -392.60541169 427.92796271 -395.97002029 427.92642975 C-397.58638837 427.92339808 -399.20275496 427.91535229 -400.81907272 427.90224457 C-403.07933018 427.88522421 -405.33882589 427.88705411 -407.59912109 427.89355469 C-408.88628021 427.88990906 -410.17343933 427.88626343 -411.49960327 427.88250732 C-414.57519311 427.9985287 -414.57519311 427.9985287 -416.53286743 429.55743408 Z " fill="#216032" transform="translate(639.625,158.75)"/>
<path d="M0 0 C3.10885767 1.68534325 5.83731372 3.77028298 8.625 5.9375 C10.19739647 7.12048342 11.77032015 8.30276638 13.34375 9.484375 C14.12105469 10.07541016 14.89835937 10.66644531 15.69921875 11.27539062 C17.86579294 12.89940167 20.0592901 14.46855946 22.28125 16.015625 C22.93270996 16.46945557 23.58416992 16.92328613 24.25537109 17.39086914 C25.47976617 18.24001543 26.7065741 19.08569558 27.93603516 19.92749023 C29.32619276 20.90292649 30.66911083 21.94513125 32 23 C32 23.66 32 24.32 32 25 C31.46745605 25.28085449 30.93491211 25.56170898 30.38623047 25.85107422 C9.71528516 36.81597204 -19.49881006 52.79874654 -30 75 C-29.46745605 74.64808594 -28.93491211 74.29617188 -28.38623047 73.93359375 C-17.7683771 66.93271087 -7.15220589 60.12381483 4 54 C5.58748047 53.071875 5.58748047 53.071875 7.20703125 52.125 C37.37491611 35.02411898 72.07756165 26.54178562 106.0625 21.125 C106.86526367 20.99254883 107.66802734 20.86009766 108.49511719 20.72363281 C113.19628595 20.0239706 117.32958645 19.77554701 122 21 C124.47255753 23.18882142 124.92712443 24.56274659 125.46875 27.8125 C125.59342359 40.52920642 121.23976794 49.53755682 113 59 C112.14728516 60.03253906 112.14728516 60.03253906 111.27734375 61.0859375 C104.98993718 68.56207925 97.57979842 74.43112323 89.875 80.375 C88.85321655 81.1798584 88.85321655 81.1798584 87.81079102 82.00097656 C83.99468712 84.89707294 80.98733102 87.06384919 76 87 C73.98046875 85.84765625 73.98046875 85.84765625 72.1875 84.0625 C71.52105469 83.423125 70.85460937 82.78375 70.16796875 82.125 C69.45253906 81.42375 68.73710937 80.7225 68 80 C66.34019136 78.51314187 64.67361026 77.03380572 63 75.5625 C61.66638699 74.3753141 60.33295015 73.18793011 59 72 C60.86766557 79.16418973 60.86766557 79.16418973 63.1875 86.1875 C64.41201871 90.4262186 65.02480436 95.01067389 62.9375 99.0625 C61.77816252 101.45846412 61.67206271 103.3484644 62.14453125 105.9609375 C63.72060208 109.71759949 66.64993021 112.38478296 69.4375 115.29296875 C72.9235259 118.97561501 76.06507982 122.90521165 79.25 126.84765625 C80.82177538 128.85596185 80.82177538 128.85596185 82 130 C82.5 133.1875 82.5 133.1875 82 137 C80.35304763 138.86177224 78.62726966 140.26474055 76.62890625 141.73828125 C74.85894338 142.92106765 74.85894338 142.92106765 74 145 C74.01984677 147.78847173 74.10054677 150.54800292 74.2265625 153.33203125 C74.28968023 155.03448242 74.35216011 156.73695733 74.4140625 158.43945312 C74.51714696 161.12578498 74.62496209 163.81164578 74.74414062 166.49731445 C74.85665307 169.08772283 74.94928538 171.67824855 75.0390625 174.26953125 C75.07955719 175.06865433 75.12005188 175.8677774 75.16177368 176.69111633 C75.30612598 181.3273269 75.02899597 184.22918132 72 188 C67.103352 190.76452821 60.9036503 191.3212722 55.41796875 192.32421875 C54.63808594 192.48277344 53.85820312 192.64132812 53.0546875 192.8046875 C52.34812012 192.93858887 51.64155273 193.07249023 50.91357422 193.21044922 C48.25042915 194.30927687 47.3779571 195.47989452 46 198 C45.63599974 200.86815212 45.63599974 200.86815212 45.8125 204.015625 C45.83570313 205.18480469 45.85890625 206.35398437 45.8828125 207.55859375 C45.96044197 210.00392203 46.03856061 212.44923484 46.1171875 214.89453125 C46.25357259 221.79713214 45.86539386 226.71461992 43 233 C42.56022721 234.6556152 42.15349504 236.32125518 41.8125 238 C41.65394531 238.763125 41.49539063 239.52625 41.33203125 240.3125 C41.22246094 240.869375 41.11289062 241.42625 41 242 C42.75528013 240.12971875 44.50418455 238.2540838 46.25 236.375 C46.74113281 235.85292969 47.23226562 235.33085937 47.73828125 234.79296875 C50.88237782 231.39734445 53.51582341 227.92411966 56 224 C58 221 58 221 61 219 C65.14284096 219.05044555 68.99162024 220.00980642 73 221 C74.68996094 221.37125 74.68996094 221.37125 76.4140625 221.75 C82.43922439 223.13046669 82.43922439 223.13046669 85 224 C86.57632086 227.15264172 85.33473622 230.21781632 84.671875 233.55078125 C83.53978984 239.54102057 82.67857218 245.47125421 82.140625 251.54296875 C80.28046589 270.94520139 76.98044082 288.43786118 60.96899414 301.6796875 C57.90714063 303.73281878 55.35945046 304.12618368 51.76933289 304.14044189 C50.90722198 304.14615204 50.04511108 304.15186218 49.15687561 304.15774536 C47.74250465 304.15942215 47.74250465 304.15942215 46.29956055 304.16113281 C45.30414246 304.16609772 44.30872437 304.17106262 43.28314209 304.17617798 C39.98432732 304.19080391 36.68556064 304.19760239 33.38671875 304.203125 C31.09609475 304.20887616 28.80547077 304.2146339 26.5148468 304.22039795 C21.70887019 304.23090921 16.90291032 304.23675104 12.09692383 304.24023438 C5.93983534 304.2457189 -0.21703197 304.2697457 -6.37405109 304.29820633 C-11.10697576 304.31683365 -15.83984717 304.32203837 -20.5728054 304.32357025 C-22.84259437 304.32659716 -25.11238238 304.33462693 -27.38213539 304.34775543 C-30.5587202 304.36481729 -33.73476486 304.36293511 -36.91137695 304.35644531 C-37.84821823 304.3656601 -38.78505951 304.37487488 -39.75028992 304.3843689 C-44.92913494 304.35123915 -48.51651824 303.88773583 -53 301 C-64.74587655 289.03208419 -68.71905161 270.10977985 -71.43359375 254.22216797 C-72.03985736 250.7732597 -72.71528034 247.3430616 -73.40625 243.91015625 C-73.87531229 241.56516661 -74.34406955 239.22011594 -74.8125 236.875 C-75.03204346 235.77841064 -75.25158691 234.68182129 -75.4777832 233.55200195 C-75.67718506 232.52163818 -75.87658691 231.49127441 -76.08203125 230.4296875 C-76.25968018 229.52460449 -76.4373291 228.61952148 -76.62036133 227.68701172 C-77.03384353 224.76046179 -77.06365124 221.95179238 -77 219 C-58.04139073 212.8807947 -58.04139073 212.8807947 -50.62109375 216 C-41.30501398 221.26365984 -32.97413965 228.57880971 -24.6875 235.3125 C-20.63727943 238.58051758 -16.47553134 241.34783328 -12 244 C-13.20385507 241.39368432 -14.41298776 238.79002083 -15.625 236.1875 C-15.95628906 235.46884766 -16.28757812 234.75019531 -16.62890625 234.00976562 C-16.97050781 233.27822266 -17.31210938 232.54667969 -17.6640625 231.79296875 C-18.02387207 231.01397217 -18.38368164 230.23497559 -18.75439453 229.43237305 C-19.96631824 226.94795444 -19.96631824 226.94795444 -21.61669922 224.59301758 C-27.60128646 215.38265179 -26.39871955 206.50227183 -25.72607422 195.98364258 C-24.94693247 182.72845863 -27.09475818 171.84337742 -36.15283203 161.5546875 C-37.82677097 159.8027695 -37.82677097 159.8027695 -39.796875 160.01953125 C-43.01440924 161.45144808 -46.13194155 163.054303 -49.25 164.6875 C-63.41839707 171.92346782 -77.15724976 177.05733382 -93.1875 177.3125 C-94.32904541 177.33932861 -94.32904541 177.33932861 -95.49365234 177.36669922 C-100.72031815 177.35871261 -104.38458095 176.50417273 -109 174 C-111 171 -111 171 -110.94921875 168.35546875 C-109.65827677 163.79201542 -107.38905545 160.26490185 -104.8125 156.3125 C-104.28221191 155.48814453 -103.75192383 154.66378906 -103.20556641 153.81445312 C-94.09328341 139.82655522 -84.37618324 125.42750363 -71.94921875 114.13671875 C-70.19928901 112.44887077 -69.06729838 111.17876084 -68 109 C-68.18720738 106.93206644 -68.18720738 106.93206644 -69.01171875 104.73828125 C-69.30570557 103.85470947 -69.59969238 102.9711377 -69.90258789 102.06079102 C-72.34136518 95.25879972 -74.84177992 88.48247934 -77.38964844 81.72070312 C-78.13163263 79.74780821 -78.86693629 77.77251934 -79.6015625 75.796875 C-80.03807129 74.63510742 -80.47458008 73.47333984 -80.92431641 72.27636719 C-82.59136303 67.19879893 -83.83042456 62.98915844 -81.3828125 57.97265625 C-76.30857892 50.73398971 -68.23822534 45.30088666 -61.25366211 40.02539062 C-56.63395664 36.52787266 -52.15043616 32.88241245 -47.6875 29.1875 C-46.97231201 28.59590088 -46.25712402 28.00430176 -45.52026367 27.39477539 C-44.06802701 26.19307603 -42.61596021 24.99117136 -41.1640625 23.7890625 C-9.23478051 -2.60734752 -9.23478051 -2.60734752 0 0 Z " fill="#387548" transform="translate(253,201)"/>
<path d="M0 0 C1.94808782 0.41346576 3.8986071 0.81542046 5.84912109 1.21728516 C18.54063488 3.94231435 30.72389245 8.13534414 42.96240234 12.41650391 C44.25742676 12.86292236 44.25742676 12.86292236 45.57861328 13.31835938 C47.85783964 14.10746277 50.12999259 14.91354597 52.39990234 15.72900391 C53.0619165 15.95894043 53.72393066 16.18887695 54.40600586 16.42578125 C56.20849609 17.09228516 56.20849609 17.09228516 58.96240234 18.41650391 C59.29240234 19.40650391 59.62240234 20.39650391 59.96240234 21.41650391 C52.59697878 29.52258458 43.99391236 36.73384003 32.64331055 37.59179688 C25.13139193 37.78285468 18.75220973 36.30354726 11.58740234 34.16650391 C-20.65232816 25.04863696 -53.60872485 21.88871352 -87.03759766 24.41650391 C-87.82408691 24.47177246 -88.61057617 24.52704102 -89.42089844 24.58398438 C-105.72377264 25.78517715 -121.47675007 29.461411 -137.28759766 33.47900391 C-163.46634588 40.10382999 -189.81312512 43.65267492 -216.85009766 43.47900391 C-218.23616372 43.47397075 -219.62223158 43.4694111 -221.00830078 43.46533203 C-224.35144741 43.45368344 -227.69449776 43.4373282 -231.03759766 43.41650391 C-225.29452905 38.81182815 -225.29452905 38.81182815 -222.60009766 36.85400391 C-221.79765625 36.26425781 -221.79765625 36.26425781 -220.97900391 35.66259766 C-218.42719269 34.02471481 -215.76418015 32.7440899 -213.03759766 31.41650391 C-210.34826383 30.0868641 -207.66195006 28.75114954 -204.97509766 27.41650391 C-204.2809375 27.07361328 -203.58677734 26.73072266 -202.87158203 26.37744141 C-199.96903976 24.9330614 -197.14621888 23.48285696 -194.37744141 21.79150391 C-191.86253661 20.31362997 -189.41860233 19.36412729 -186.66259766 18.41650391 C-183.68171409 17.3856508 -180.79326087 16.30895916 -177.90478516 15.03759766 C-164.30972817 9.1349196 -149.47952194 4.70865567 -135.03759766 1.41650391 C-134.1877832 1.21959961 -133.33796875 1.02269531 -132.46240234 0.81982422 C-88.77118801 -9.11477939 -43.7999112 -9.30679761 0 0 Z " fill="#A8DDB4" transform="translate(505.03759765625,146.58349609375)"/>
<path d="M0 0 C2.14825873 3.63623015 2.83211713 7.45993415 3.5625 11.5625 C3.69180908 12.27414307 3.82111816 12.98578613 3.9543457 13.71899414 C4.96721815 19.46249285 5.68983937 25.17273959 6 31 C6.05285156 31.69609375 6.10570312 32.3921875 6.16015625 33.109375 C6.8021527 47.95903191 2.11053626 63.75896819 -7.546875 75.16796875 C-12.80787082 80.67985021 -18.55300347 84.9720235 -24.96484375 89.05078125 C-51.397926 106.02646727 -74.62756669 131.7439546 -82 163 C-82.66 163 -83.32 163 -84 163 C-82.82035331 156.68842575 -81.02559191 151.03031262 -78.375 145.1875 C-78.02236084 144.40560303 -77.66972168 143.62370605 -77.30639648 142.81811523 C-66.26658002 118.99045007 -46.57466554 100.07455895 -24.8125 85.9375 C-11.25818955 77.02066169 -1.26424345 65.82836377 2.54858398 49.67602539 C4.81127619 36.26262938 3.7376179 21.26989148 0.65625 8.07421875 C0.05674111 5.26580506 -0.12866012 2.8573268 0 0 Z " fill="#8CB697" transform="translate(643,164)"/>
<path d="M0 0 C0 0.66 0 1.32 0 2 C-1.46875 3.4453125 -1.46875 3.4453125 -3.5 5.125 C-10.9139489 11.27387032 -17.11628629 17.95678931 -22.5 25.9375 C-23.334104 27.16714478 -23.334104 27.16714478 -24.18505859 28.42163086 C-31.21856721 39.03926847 -37.061068 50.54015288 -40 63 C-40.66 63 -41.32 63 -42 63 C-40.82035331 56.68842575 -39.02559191 51.03031262 -36.375 45.1875 C-35.84604126 44.01465454 -35.84604126 44.01465454 -35.30639648 42.81811523 C-28.74930425 28.6656881 -18.96559047 16.84189851 -8.0625 5.8125 C-7.49442627 5.23508057 -6.92635254 4.65766113 -6.34106445 4.06274414 C-2.24619887 0 -2.24619887 0 0 0 Z " fill="#7AA786" transform="translate(601,264)"/>
<path d="M0 0 C0.33 0 0.66 0 1 0 C1 4.95 1 9.9 1 15 C-1.20296753 15.02187378 -1.20296753 15.02187378 -3.45043945 15.04418945 C-8.89063066 15.10208813 -14.33040429 15.17932165 -19.77026367 15.26245117 C-22.12631461 15.2957402 -24.48244606 15.32375961 -26.83862305 15.34643555 C-30.22219207 15.37990803 -33.60502054 15.43222092 -36.98828125 15.48828125 C-38.57277824 15.49786613 -38.57277824 15.49786613 -40.18928528 15.50764465 C-41.66047066 15.53733589 -41.66047066 15.53733589 -43.16137695 15.56762695 C-44.02519485 15.57873001 -44.88901276 15.58983307 -45.77900696 15.60127258 C-48.45622907 16.08190527 -49.22149335 17.01926022 -51 19 C-51.66 19 -52.32 19 -53 19 C-51.25 15.125 -51.25 15.125 -49 14 C-44.92828217 13.61780187 -40.83614573 13.52378432 -36.75 13.375 C-35.54754639 13.32996338 -34.34509277 13.28492676 -33.10620117 13.23852539 C-22.02710422 12.88726011 -11.05502329 13.27343123 0 14 C0 9.38 0 4.76 0 0 Z " fill="#5F8C6B" transform="translate(541,496)"/>
<path d="M0 0 C0.66 0.33 1.32 0.66 2 1 C0.45895312 2.0842148 -1.08287078 3.16732521 -2.625 4.25 C-3.54539062 4.89839844 -4.46578125 5.54679688 -5.4140625 6.21484375 C-7.23669126 7.4730633 -9.10436599 8.66722112 -11 9.8125 C-15.83350086 13.33692771 -19.85277405 17.70524427 -24 22 C-24 17.83054067 -22.40995792 16.44064313 -19.6796875 13.41015625 C-16.09363652 10.18480136 -12.22300173 7.56742489 -8.1875 4.9375 C-7.42187744 4.43605469 -6.65625488 3.93460938 -5.86743164 3.41796875 C-1.6825925 0.77207645 -1.6825925 0.77207645 0 0 Z " fill="#7CAA88" transform="translate(582,242)"/>
<path d="M0 0 C0.66 0.33 1.32 0.66 2 1 C1.07058594 1.78503906 0.14117187 2.57007813 -0.81640625 3.37890625 C-8.76370948 10.06296094 -8.76370948 10.06296094 -16.25 17.25 C-17.1575 18.1575 -18.065 19.065 -19 20 C-19.66 20 -20.32 20 -21 20 C-17.46742854 11.44847456 -7.19563739 5.40541842 0 0 Z " fill="#8AB394" transform="translate(193,240)"/>
<path d="M0 0 C1.32 0.66 2.64 1.32 4 2 C4 2.99 4 3.98 4 5 C3.01 4.34 2.02 3.68 1 3 C-0.175625 4.3921875 -0.175625 4.3921875 -1.375 5.8125 C-1.81585937 6.33457031 -2.25671875 6.85664063 -2.7109375 7.39453125 C-3.89201099 8.8655046 -4.95358529 10.43037794 -6 12 C-5.5020163 8.26512223 -5.12508244 6.18762365 -3 3 C-2.34 3 -1.68 3 -1 3 C-0.67 2.01 -0.34 1.02 0 0 Z " fill="#BEE6C8" transform="translate(662,235)"/>
<path d="M0 0 C0.33 0 0.66 0 1 0 C1.95619733 3.99795892 2.1039592 7.70803922 2.0625 11.8125 C2.05347656 12.97394531 2.04445313 14.13539063 2.03515625 15.33203125 C2.02355469 16.21246094 2.01195312 17.09289062 2 18 C1.01 18.33 0.02 18.66 -1 19 C-0.505 17.515 -0.505 17.515 0 16 C0.07051114 13.26134713 0.09357765 10.54972412 0.0625 7.8125 C0.05573242 6.68811523 0.05573242 6.68811523 0.04882812 5.54101562 C0.03706354 3.69397617 0.01912865 1.84697787 0 0 Z " fill="#689574" transform="translate(523,418)"/>
<path d="M0 0 C0 3.78176921 -1.07555275 5.76967782 -3 9 C-5.1875 10.375 -5.1875 10.375 -7 11 C-6.40716379 7.60807637 -5.23256811 5.7892243 -2.9375 3.25 C-2.38964844 2.63640625 -1.84179688 2.0228125 -1.27734375 1.390625 C-0.85582031 0.93171875 -0.43429688 0.4728125 0 0 Z " fill="#81AB8B" transform="translate(223,272)"/>
<path d="M0 0 C1 3 1 3 -0.14453125 5.48046875 C-0.97017578 6.82044922 -0.97017578 6.82044922 -1.8125 8.1875 C-2.35519531 9.08855469 -2.89789062 9.98960937 -3.45703125 10.91796875 C-3.96621094 11.60503906 -4.47539063 12.29210937 -5 13 C-5.66 13 -6.32 13 -7 13 C-5.54331217 10.03216871 -3.98767914 7.13584687 -2.375 4.25 C-1.92898438 3.45078125 -1.48296875 2.6515625 -1.0234375 1.828125 C-0.68570313 1.22484375 -0.34796875 0.6215625 0 0 Z " fill="#80AE8C" transform="translate(642,224)"/>
<path d="M0 0 C0.66 0.33 1.32 0.66 2 1 C0.71451591 2.33929505 -0.57858155 3.67128643 -1.875 5 C-2.59429688 5.7425 -3.31359375 6.485 -4.0546875 7.25 C-6 9 -6 9 -8 9 C-6.90101298 5.70303895 -6.05402613 4.95329411 -3.4375 2.8125 C-2.79683594 2.28269531 -2.15617188 1.75289063 -1.49609375 1.20703125 C-0.75552734 0.60955078 -0.75552734 0.60955078 0 0 Z " fill="#649170" transform="translate(587,426)"/>
<path d="M0 0 C0.99 0.33 1.98 0.66 3 1 C2.0479279 2.00596297 1.08812654 3.00461563 0.125 4 C-0.40867188 4.556875 -0.94234375 5.11375 -1.4921875 5.6875 C-3 7 -3 7 -5 7 C-3.70700306 4.11562221 -2.34058637 2.12780579 0 0 Z " fill="#70A27D" transform="translate(177,253)"/>
<path d="M0 0 C0.556875 0.268125 1.11375 0.53625 1.6875 0.8125 C-1.19337546 3.21322955 -3.87654834 5.28541037 -7.3125 6.8125 C-7.3125 4.8125 -7.3125 4.8125 -5.0625 2.125 C-2.3125 -0.1875 -2.3125 -0.1875 0 0 Z " fill="#608F6C" transform="translate(316.3125,420.1875)"/>
<path d="M0 0 C0.66 0.33 1.32 0.66 2 1 C0.38405168 3.04119788 -1.2856382 5.04072937 -3 7 C-3.66 7 -4.32 7 -5 7 C-3.70700306 4.11562221 -2.34058637 2.12780579 0 0 Z " fill="#6D9B79" transform="translate(570,377)"/>
</svg>
